<svg width="68" height="30" viewBox="0 0 68 30" fill="none" xmlns="http://www.w3.org/2000/svg">
<g id="Logo 2" clip-path="url(#clip0_163_5291)">
<path id="Vector" d="M68 0H0V30H68V0Z" fill="#595959"/>
<g id="Clip path group">
<mask id="mask0_163_5291" style="mask-type:luminance" maskUnits="userSpaceOnUse" x="-363" y="-17" width="1920" height="1333">
<g id="clip0_78_4569">
<path id="Vector_2" d="M1557 -17H-363V1316H1557V-17Z" fill="white"/>
</g>
</mask>
<g mask="url(#mask0_163_5291)">
<g id="Group">
<path id="Vector_3" d="M1557 -17H-363V1316H1557V-17Z" fill="white"/>
<path id="Vector_4" d="M10.0791 11.5674C9.98926 10.377 9.11328 9.68066 7.54102 9.68066C5.99121 9.68066 5.20508 10.3545 5.18262 11.2754C5.16016 12.2861 6.14844 12.7803 7.6084 13.0947L9.02344 13.4316C12.1455 14.1279 13.9648 15.6777 13.9873 18.2832C13.9648 21.3604 11.584 23.2246 7.54102 23.2246C3.49805 23.2246 0.870117 21.3828 0.802734 17.6543H4.48633C4.57617 19.2266 5.74414 20.0352 7.49609 20.0352C9.11328 20.0352 10.0791 19.3164 10.1016 18.2832C10.0791 17.3398 9.24805 16.8457 7.45117 16.4414L5.74414 16.0371C2.93652 15.3857 1.22949 13.9932 1.22949 11.5449C1.20703 8.53516 3.87988 6.51367 7.56348 6.51367C11.3145 6.51367 13.7178 8.55762 13.7627 11.5674H10.0791ZM29.7549 6.73828V23H26.498L19.8945 13.4541H19.7822V23H15.9639V6.73828H19.2656L25.8018 16.2842H25.9365V6.73828H29.7549ZM42.0859 6.73828H45.9268V17.2275C45.9268 20.8662 43.1641 23.2246 39.0762 23.2246C34.9658 23.2246 32.2256 20.8662 32.2256 17.2275V6.73828H36.0439V16.9131C36.0439 18.6426 37.2793 19.8779 39.0762 19.8779C40.873 19.8779 42.0859 18.6426 42.0859 16.9131V6.73828ZM48.3975 23V6.73828H55.0459C58.707 6.73828 60.9531 9.0293 60.9531 12.3311C60.9531 15.7002 58.6621 17.9014 54.9336 17.9014H52.2158V23H48.3975ZM52.2158 14.8691H54.2373C56.0342 14.8691 57 13.8584 57 12.3311C57 10.8037 56.0342 9.83789 54.2373 9.83789H52.2158V14.8691ZM66.7031 6.73828V23H62.8848V6.73828H66.7031Z" fill="black"/>
</g>
</g>
</g>
</g>
<defs>
<clipPath id="clip0_163_5291">
<rect width="68" height="30" fill="white"/>
</clipPath>
</defs>
</svg>
